<svg width="1734" height="334" viewBox="0 0 1734 334" fill="none" xmlns="http://www.w3.org/2000/svg">
<path d="M35.1468 0.134478C32.1835 1.76262 29.6668 4.61548 29.662 8.16475C29.6492 33.9782 29.6476 53.0292 29.6572 65.318C29.6572 65.4781 29.5772 65.5581 29.4171 65.5581C28.5622 65.5581 21.5773 65.5533 8.46252 65.5437C6.29806 65.5437 4.83962 65.6926 4.08718 65.9904C2.61753 66.5699 1.39601 67.5081 0.422648 68.8048C0.140884 69.1826 0 69.1346 0 68.6607V0.134478C0 0.0988118 0.0136573 0.0646101 0.0379762 0.0393906C0.062295 0.014171 0.0952781 0 0.12967 0H35.1132C35.2957 0 35.3069 0.0448255 35.1468 0.134478Z" fill="#FFA904"/>
<path d="M104.638 65.5581C104.623 65.5581 104.609 65.552 104.598 65.5412C104.587 65.5304 104.581 65.5158 104.581 65.5005C104.581 45.7066 104.581 26.4346 104.581 7.68447C104.581 4.70193 101.915 1.76743 99.437 0.321786C99.0688 0.107261 99.0976 0 99.5235 0H343.169C343.342 0 343.428 0.086447 343.428 0.259348L343.337 79.4334C343.337 79.4366 343.288 79.4574 343.188 79.4958L343.184 79.5006C343.145 79.5166 343.123 79.4974 343.116 79.443C342.905 77.8437 342.727 75.9513 342.377 74.3184C339.918 62.8397 335.584 52.5938 329.376 43.5805C309.756 15.0904 277.241 1.3688 243.281 0.600349C238.657 0.497889 234.376 0.497889 230.438 0.600349C214.944 1.00859 199.518 4.22646 185.445 10.4797C161.998 20.897 144.002 40.4395 137.427 65.3228C137.386 65.4797 137.283 65.5581 137.12 65.5581H104.638Z" fill="#FFA904"/>
<path d="M343.03 214.156C342.649 212.258 342.172 210.553 341.598 209.041C336.234 194.835 325.749 181.805 314.026 172.257C311.31 170.044 307.841 167.536 303.618 164.731C295.604 159.409 287.304 154.32 278.72 149.463C268.903 143.908 263.832 141.035 263.505 140.847C260.633 139.182 257.812 137.674 255.043 136.322C244.918 131.39 233.958 125.732 224.122 119.647C217.24 115.392 210.194 109.672 206.885 102.093C203.843 95.1224 203.576 87.8302 206.083 80.2161C208.311 73.4602 212.698 68.6126 219.243 65.6733C227.153 62.1192 236.35 61.6581 244.966 63.1854C257.655 65.4331 267.818 72.815 272.309 85.1534C274.633 91.5363 274.46 98.0297 274.436 104.994C274.43 106.848 274.622 108.157 275.013 108.922C276.535 111.91 279.388 114.052 282.913 114.042C304.407 113.981 321.58 113.981 334.433 114.042C336.7 114.052 338.253 113.877 339.091 113.519C340.724 112.814 341.981 111.743 342.862 110.306C343.217 109.726 343.395 109.776 343.395 110.455C343.398 137.962 343.401 171.985 343.404 212.523C343.404 213.241 343.342 213.788 343.217 214.166C343.14 214.397 343.078 214.393 343.03 214.156Z" fill="#FFA904"/>
<path d="M84.3851 328.986H0.259355C0.0864543 328.986 0 328.9 0 328.727V122.697C0 122.418 0.0992554 122.377 0.297771 122.572C2.19487 124.483 3.76539 125.871 6.67588 125.905C15.5194 125.995 23.1046 125.995 29.4315 125.905C29.582 125.902 29.6572 125.977 29.6572 126.131C29.6572 141.91 29.6572 188.519 29.6572 265.959C29.6572 275.238 30.6706 284.729 33.5091 293.599C37.8924 307.307 46.9281 316.962 60.616 322.565C68.3645 325.735 76.2667 327.781 84.3226 328.703C84.3386 328.703 84.3578 328.725 84.3802 328.77L84.4475 328.885C84.4827 328.953 84.4619 328.986 84.3851 328.986Z" fill="#FFA904"/>
<path d="M135.227 262.117C131.408 262.117 128.401 262.111 126.208 262.098C123.044 262.075 120.737 261.917 119.287 261.622C116.943 261.145 114.756 260.322 112.726 259.154C105.95 255.244 104.581 244.337 104.581 237.258C104.578 174.607 104.578 137.589 104.581 126.203C104.584 126.036 104.667 125.953 104.831 125.953H140.357C140.53 125.953 140.65 126.033 140.717 126.193C142.222 129.811 143.882 133.061 145.697 135.943C153.161 147.777 162.386 157.914 173.371 166.354C175.465 167.962 178.089 169.791 181.243 171.844C195.2 180.926 209.824 188.745 224.833 196.29C233.02 200.408 241.641 205.047 250.696 210.208C257.021 213.811 263.222 217.893 268.207 223.195C273.524 228.853 276.161 235.779 275.647 243.501C274.869 255.196 267.741 264.893 256.373 268.169C246.319 271.063 236.203 270.788 226.024 267.343C214.2 263.337 205.646 253.976 203.489 241.628C202.798 237.652 203 233.118 203.019 228.075C203.025 226.375 202.896 225.2 202.63 224.55C201.712 222.273 199.734 220.309 197.611 219.343C197.038 219.084 195.919 218.954 194.254 218.954C174.943 218.99 157.229 218.977 141.111 218.916C139.129 218.91 137.416 219.596 135.972 220.976C133.763 223.085 133.061 224.271 133.052 227.369C133.039 232.255 133.036 236.624 133.042 240.476C133.057 248.237 133.734 255.067 135.323 261.997C135.343 262.077 135.311 262.117 135.227 262.117Z" fill="#FFA904"/>
<path d="M272.856 328.549C273.798 328.517 274.556 328.434 275.133 328.3C293.13 324.14 308.525 315.792 321.316 303.253C331.474 293.292 338.717 281.304 342.602 267.501C342.782 266.861 342.953 266.108 343.116 265.244C343.302 264.248 343.395 264.256 343.395 265.268V328.708C343.395 328.897 343.3 328.991 343.111 328.991C315.665 328.991 293.186 328.991 275.675 328.991C274.734 328.991 273.466 328.809 272.837 328.679C272.475 328.609 272.482 328.565 272.856 328.549Z" fill="#FFA904"/>
<path d="M208.345 328.722C207.639 328.785 206.899 328.986 206.237 328.986C181.073 328.999 159.762 328.996 142.302 328.977C142.062 328.977 142.036 328.901 142.225 328.751C144.857 326.643 146.115 324.818 146.115 321.307C146.122 314.461 146.125 303.426 146.125 288.201C146.125 287.98 146.184 287.963 146.303 288.148C159.587 309.031 181.642 322.464 205.536 328.218C206.29 328.4 207.956 328.386 208.422 328.559C208.653 328.642 208.627 328.697 208.345 328.722Z" fill="#FFA904"/>
<path d="M883.315 128.702C892.555 117.332 905.635 113.912 919.845 114.882C949.385 116.902 963.235 139.732 963.245 167.122C963.252 177.602 963.255 211.105 963.255 267.632C963.255 269.559 962.992 270.919 962.465 271.712C961.605 273.019 960.199 273.679 958.245 273.692C948.939 273.752 937.372 273.759 923.545 273.712C922.273 273.707 921.055 273.199 920.157 272.299C919.259 271.4 918.755 270.182 918.755 268.912C918.755 207.712 918.752 175.739 918.745 172.992C918.725 163.972 913.615 154.972 904.035 153.532C894.785 152.152 886.985 156.792 883.955 165.672C883.189 167.899 882.802 171.542 882.795 176.602C882.742 207.309 882.732 238.022 882.765 268.742C882.775 273.122 879.165 273.722 875.405 273.732C864.819 273.745 854.272 273.745 843.765 273.732C838.325 273.722 838.005 270.582 838.005 265.892C838.005 199.879 838.005 133.862 838.005 67.8421C838.005 63.8521 839.195 61.1921 843.505 61.1921C844.572 61.1921 855.379 61.2155 875.925 61.2621C879.775 61.2721 882.745 62.1821 882.745 66.4921C882.752 103.205 882.765 123.879 882.785 128.512C882.785 129.072 882.962 129.135 883.315 128.702Z" fill="#FFA904"/>
<path d="M475.205 151.232C475.088 151.232 474.976 151.28 474.894 151.364C474.811 151.448 474.765 151.563 474.765 151.682C474.752 163.569 474.748 186.922 474.755 221.742C474.755 223.849 475.332 226.322 476.485 229.162C479.355 236.232 489.075 235.032 495.035 235.032C496.224 235.035 497.364 235.509 498.204 236.351C499.043 237.193 499.515 238.333 499.515 239.522C499.515 249.196 499.505 258.872 499.485 268.552C499.475 271.312 498.725 273.302 495.805 273.512C486.525 274.186 477.448 274.162 468.575 273.442C463.782 273.055 459.085 272.182 454.485 270.822C437.425 265.792 432.015 253.612 432.005 237.062C432.005 208.935 432.005 180.579 432.005 151.992C432.005 151.791 431.925 151.597 431.783 151.455C431.64 151.312 431.447 151.232 431.245 151.232H417.505C416.316 151.232 415.175 150.761 414.334 149.921C413.492 149.081 413.018 147.941 413.015 146.752C413.008 143.259 413.002 135.542 412.995 123.602C412.995 121.622 413.195 120.249 413.595 119.482C414.408 117.956 415.792 117.202 417.745 117.222C422.438 117.262 426.962 117.262 431.315 117.222C431.499 117.22 431.675 117.145 431.804 117.014C431.933 116.883 432.005 116.706 432.005 116.522V81.9922C432.005 80.7987 432.478 79.6541 433.32 78.8102C434.162 77.9663 435.304 77.4922 436.495 77.4922H469.885C471.177 77.4922 472.415 78.0063 473.329 78.9215C474.242 79.8367 474.755 81.0779 474.755 82.3722V116.742C474.755 116.875 474.808 117.002 474.902 117.096C474.995 117.19 475.123 117.242 475.255 117.242H498.505C499.632 117.242 500.713 117.69 501.51 118.487C502.307 119.284 502.755 120.365 502.755 121.492V146.992C502.755 148.117 502.307 149.195 501.51 149.99C500.713 150.785 499.632 151.232 498.505 151.232H475.205Z" fill="#FFA904"/>
<path d="M571.505 210.252C571.395 210.252 571.286 210.274 571.186 210.319C571.085 210.363 570.995 210.428 570.92 210.51C570.846 210.592 570.789 210.689 570.754 210.794C570.719 210.9 570.705 211.011 570.715 211.122C571.055 215.075 571.442 218.259 571.875 220.672C573.635 230.522 580.685 236.902 590.525 237.662C598.695 238.292 606.485 235.082 610.475 227.732C612.215 224.542 613.235 221.142 617.255 221.862C624.889 223.235 635.492 225.319 649.065 228.112C650.585 228.425 651.635 228.912 652.215 229.572C653.269 230.785 653.582 232.039 653.155 233.332C645.042 257.752 628.545 271.752 603.665 275.332C593.752 276.752 583.249 276.265 572.155 273.872C542.925 267.562 529.335 244.842 526.815 216.522C525.609 202.862 525.425 189.606 526.265 176.752C526.645 170.852 527.479 165.166 528.765 159.692C534.155 136.662 551.825 120.462 574.895 116.132C583.875 114.452 593.089 114.272 602.535 115.592C630.425 119.482 651.225 139.682 654.235 168.052C655.789 182.732 656.039 195.749 654.985 207.102C654.792 209.189 653.465 210.232 651.005 210.232C617.805 210.232 591.305 210.239 571.505 210.252ZM571.105 181.962L609.945 182.022C609.976 182.024 610.007 182.019 610.036 182.008C610.065 181.997 610.092 181.98 610.114 181.958C610.137 181.937 610.155 181.911 610.167 181.883C610.179 181.854 610.185 181.823 610.185 181.792L610.195 175.322C610.205 169.483 608.233 163.88 604.713 159.745C601.193 155.609 596.413 153.281 591.425 153.272H589.745C587.275 153.268 584.827 153.833 582.543 154.936C580.259 156.038 578.182 157.657 576.431 159.699C574.681 161.741 573.291 164.166 572.341 166.837C571.391 169.507 570.9 172.37 570.895 175.262L570.885 181.732C570.885 181.791 570.908 181.848 570.949 181.891C570.99 181.934 571.046 181.96 571.105 181.962Z" fill="#FFA904"/>
<path d="M773.345 213.992C786.135 214.972 793.735 215.612 805.145 216.752C807.475 216.992 810.065 218.302 810.015 220.772C809.835 229.386 808.075 237.279 804.735 244.452C792.395 270.942 761.735 278.572 735.095 275.322C710.495 272.322 691.005 257.212 684.765 232.862C683.245 226.902 682.235 220.139 681.735 212.572C680.822 198.632 681.078 184.789 682.505 171.042C683.345 162.916 684.718 156.409 686.625 151.522C694.765 130.662 713.225 118.242 735.285 115.442C758.465 112.492 784.025 118.322 799.005 137.672C805.865 146.532 809.612 157.072 810.245 169.292C810.398 172.246 808.932 173.896 805.845 174.242C802.145 174.662 790.605 175.799 771.225 177.652C769.338 177.832 767.938 177.256 767.025 175.922C766.592 175.296 766.245 173.986 765.985 171.992C764.625 161.732 758.345 153.852 747.515 153.372C737.835 152.932 730.895 158.072 728.345 167.142C726.295 174.432 725.955 183.372 725.765 191.672C725.532 201.579 726.115 210.746 727.515 219.172C728.875 227.372 733.135 235.302 741.745 236.962C751.755 238.882 761.215 234.902 764.415 225.162C765.205 222.732 765.235 217.272 767.105 215.122C768.845 213.122 770.965 213.802 773.345 213.992Z" fill="#FFA904"/>
<path d="M1225.02 136.223L1226.6 123.363C1226.73 122.299 1227.25 121.319 1228.06 120.608C1228.86 119.897 1229.9 119.504 1230.98 119.503H1246.15C1246.64 119.504 1247.13 119.609 1247.58 119.811C1248.03 120.014 1248.43 120.309 1248.75 120.677C1249.08 121.046 1249.32 121.48 1249.47 121.949C1249.61 122.419 1249.66 122.915 1249.6 123.403L1231.51 270.013C1231.39 271.003 1230.91 271.915 1230.17 272.584C1229.43 273.252 1228.48 273.632 1227.48 273.653C1222.15 273.773 1217.16 273.79 1212.53 273.703C1209.65 273.65 1208.42 272.133 1208.83 269.153C1209.28 265.82 1209.69 262.107 1210.04 258.013C1210.08 257.52 1209.95 257.467 1209.64 257.853C1204.25 264.593 1197.98 269.477 1190.85 272.503C1180.37 276.953 1167.35 277.203 1156.8 273.463C1137.6 266.653 1130.55 247.193 1131.57 228.253C1132.2 216.667 1133.69 201.76 1136.05 183.533C1138.03 168.243 1140.77 151.543 1149.83 139.113C1161.3 123.4 1176.8 116.147 1196.35 117.353C1209 118.133 1218.47 124.44 1224.74 136.273C1224.89 136.553 1224.98 136.537 1225.02 136.223ZM1158.18 193.433C1157.27 201.18 1156.56 207.45 1156.05 212.243C1155.2 220.223 1154.92 226.463 1155.19 230.963C1155.91 242.963 1163.13 252.743 1175.05 254.713C1192.06 257.533 1207.24 246.673 1211.91 230.673C1214.72 221.053 1216.03 210.193 1217.25 199.783C1218.16 192.037 1218.86 185.767 1219.37 180.973C1220.22 172.993 1220.5 166.753 1220.23 162.253C1219.51 150.253 1212.29 140.473 1200.37 138.503C1183.36 135.683 1168.18 146.543 1163.51 162.543C1160.7 172.163 1159.39 183.023 1158.18 193.433Z" fill="#707070"/>
<path d="M1082.11 157.513C1082.12 152.426 1080.34 148.156 1076.79 144.703C1063.62 131.883 1031.53 136.763 1027.32 156.823C1025.5 165.463 1027.53 172.193 1035.22 176.713C1041 180.093 1046.69 182.786 1052.3 184.793C1058.91 187.16 1065.49 189.763 1072.06 192.603C1078.41 195.363 1083.94 199.34 1088.64 204.533C1095.08 211.643 1097.27 220.963 1096.42 230.323C1094.93 246.763 1087.02 259.133 1072.69 267.433C1060.23 274.643 1044.32 276.313 1029.81 274.423C1009.26 271.743 992.42 258.023 994.55 235.623C995 230.903 994.89 227.363 1000.52 227.433C1004.19 227.48 1007.87 227.496 1011.55 227.483C1015.03 227.473 1018.16 228.033 1017.38 232.263C1016.24 238.533 1017.48 243.683 1021.92 248.433C1025.44 252.213 1029.73 254.573 1034.78 255.513C1049.18 258.183 1065.34 253.743 1071.31 239.823C1075.09 231.003 1073.95 221.053 1064.97 216.033C1059.28 212.853 1053.97 210.346 1049.03 208.513C1037.28 204.143 1026.3 199.813 1016.74 192.773C1010.21 187.953 1006.43 181.723 1005.17 173.883C1004.09 167.136 1004.4 160.353 1006.09 153.533C1013.58 123.413 1047.09 113.723 1074.09 119.683C1086.82 122.493 1098.33 131.073 1102.05 143.673C1103.86 149.793 1104.29 155.796 1103.36 161.683C1102.8 165.183 1100.27 165.693 1097.01 165.733C1093.28 165.773 1089.5 165.603 1085.79 165.753C1080.47 165.973 1082.1 160.543 1082.11 157.513Z" fill="#707070"/>
<path d="M1324.95 237.723C1337.65 204.85 1352.28 166.806 1368.84 123.593C1370.36 119.613 1372.46 119.343 1376.51 119.553C1380.72 119.78 1384.97 119.823 1389.26 119.683C1391.78 119.603 1395.16 120.683 1393.79 124.013C1372.82 175.247 1352.88 223.96 1333.95 270.153C1332.99 272.5 1331.18 273.686 1328.52 273.713C1323.27 273.76 1317.88 273.763 1312.34 273.723C1311.33 273.715 1310.35 273.35 1309.59 272.691C1308.82 272.032 1308.3 271.123 1308.14 270.123L1284.23 124.523C1283.68 121.17 1285.11 119.493 1288.5 119.493H1305.02C1305.8 119.493 1306.55 119.774 1307.14 120.285C1307.73 120.796 1308.11 121.502 1308.22 122.273L1324.49 237.673C1324.58 238.28 1324.73 238.296 1324.95 237.723Z" fill="#707070"/>
<path d="M1459.34 237.723C1472.03 204.857 1486.66 166.82 1503.22 123.613C1504.74 119.633 1506.84 119.363 1510.88 119.573C1515.09 119.8 1519.34 119.843 1523.63 119.703C1526.15 119.623 1529.53 120.703 1528.16 124.033C1507.2 175.26 1487.26 223.967 1468.34 270.153C1467.38 272.5 1465.57 273.686 1462.91 273.713C1457.66 273.76 1452.27 273.763 1446.73 273.723C1445.72 273.713 1444.75 273.346 1443.98 272.688C1443.21 272.029 1442.7 271.121 1442.54 270.123L1418.62 124.553C1418.07 121.2 1419.5 119.523 1422.89 119.523H1439.41C1440.19 119.523 1440.94 119.804 1441.53 120.315C1442.12 120.826 1442.5 121.532 1442.61 122.303L1458.88 237.673C1458.97 238.28 1459.12 238.297 1459.34 237.723Z" fill="#707070"/>
<path d="M1591.73 240.123C1601.76 214.503 1617 175.296 1637.46 122.503C1638.2 120.59 1639.82 119.606 1642.31 119.553C1647.61 119.44 1652.76 119.436 1657.75 119.543C1660.61 119.603 1661.76 122.233 1660.66 124.843C1647.33 156.596 1624.57 211.096 1592.4 288.343C1588.61 297.456 1584.14 306.163 1578.99 314.463C1574.92 321.03 1569.67 325.91 1563.24 329.103C1555.49 332.953 1544.89 333.643 1535.29 333.653C1532.34 333.663 1531.65 331.503 1531.97 328.933C1532.6 323.973 1533.12 320 1533.54 317.013C1533.99 313.773 1536.36 313.403 1539.39 313.263C1548.96 312.823 1556.44 310.523 1562.15 302.383C1568.06 293.963 1571.92 283.653 1575.46 273.993C1575.9 272.78 1575.99 271.416 1575.74 269.903C1567.2 219.89 1558.92 171.393 1550.89 124.413C1550.36 121.286 1551.73 119.693 1555 119.633C1562.13 119.506 1566.78 119.45 1568.95 119.463C1572.73 119.493 1574.48 120.323 1575 124.363C1577.54 144.043 1582.97 182.613 1591.28 240.073C1591.36 240.666 1591.51 240.683 1591.73 240.123Z" fill="#707070"/>
<path d="M1657.48 201.993H1652.04C1651.33 201.993 1650.76 202.566 1650.76 203.273V271.713C1650.76 272.42 1651.33 272.993 1652.04 272.993H1657.48C1658.19 272.993 1658.76 272.42 1658.76 271.713V203.273C1658.76 202.566 1658.19 201.993 1657.48 201.993Z" fill="#FFA904"/>
<path d="M1680.74 202.003H1675.28C1674.58 202.003 1674.01 202.572 1674.01 203.273V271.713C1674.01 272.415 1674.58 272.983 1675.28 272.983H1680.74C1681.44 272.983 1682.01 272.415 1682.01 271.713V203.273C1682.01 202.572 1681.44 202.003 1680.74 202.003Z" fill="#FFA904"/>
<path d="M1704.51 247.193C1704.49 254.803 1703.89 262.863 1710.78 265.793C1717.49 268.643 1724.62 264.753 1725.48 257.193C1725.5 257.034 1725.55 256.879 1725.63 256.739C1725.7 256.599 1725.81 256.475 1725.93 256.376C1726.06 256.276 1726.2 256.203 1726.36 256.16C1726.51 256.116 1726.67 256.104 1726.83 256.123L1732.38 256.813C1733.06 256.893 1733.37 257.277 1733.32 257.963C1732.4 270.823 1720.24 276.123 1708.88 272.883C1702.49 271.063 1698.59 266.733 1697.16 259.893C1696.71 257.733 1696.49 253.493 1696.51 247.173C1696.53 240.847 1696.77 236.603 1697.23 234.443C1698.7 227.617 1702.64 223.313 1709.04 221.533C1720.41 218.363 1732.54 223.733 1733.38 236.603C1733.43 237.29 1733.12 237.67 1732.44 237.743L1726.88 238.403C1726.72 238.421 1726.56 238.407 1726.41 238.363C1726.26 238.318 1726.11 238.244 1725.99 238.143C1725.86 238.043 1725.76 237.919 1725.68 237.778C1725.61 237.637 1725.56 237.483 1725.54 237.323C1724.73 229.763 1717.62 225.823 1710.89 228.633C1703.98 231.513 1704.53 239.583 1704.51 247.193Z" fill="#FFA904"/>
</svg>
